<svg width="27" height="25" viewBox="0 0 27 25" fill="none" xmlns="http://www.w3.org/2000/svg">
<path d="M0 11.5246C0 12.1175 0.425511 12.6306 1.10633 12.6306C1.4361 12.6306 1.73396 12.4367 1.9999 12.2087L3.21261 11.1141V21.7179C3.21261 23.4054 4.15937 24.4088 5.78695 24.4088H20.1799C21.7968 24.4088 22.7542 23.4054 22.7542 21.7179V11.0571L24.0307 12.2087C24.286 12.4367 24.5839 12.6306 24.9137 12.6306C25.5413 12.6306 26.02 12.2087 26.02 11.5474C26.02 11.1597 25.8817 10.8518 25.6051 10.601L22.7542 8.02415V3.1669C22.7542 2.65381 22.4457 2.33456 21.967 2.33456H20.499C20.0309 2.33456 19.7118 2.65381 19.7118 3.1669V5.28767L14.5312 0.624259C13.6057 -0.208086 12.4356 -0.208086 11.5101 0.624259L0.425511 10.601C0.138291 10.8518 0 11.1939 0 11.5246ZM16.0737 14.6715C16.0737 14.1356 15.7545 13.7936 15.2546 13.7936H10.7867C10.2867 13.7936 9.95696 14.1356 9.95696 14.6715V22.1398H6.35075C5.69121 22.1398 5.32953 21.7407 5.32953 21.0224V9.20996L12.5526 2.71082C12.8504 2.43718 13.1908 2.43718 13.4887 2.71082L20.6266 9.14155V21.0224C20.6266 21.7407 20.265 22.1398 19.6054 22.1398H16.0737V14.6715Z" fill="white"/>
</svg>
